solid white_tiles.stl
facet normal 0.000000 0.000000 0.250000
  outer loop
    vertex -1.500000 -1.500000 0.000000
    vertex -1.000000 -1.500000 0.000000
    vertex -1.000000 -1.000000 0.000000
  endloop
endfacet
facet normal 0.000000 0.000000 0.250000
  outer loop
    vertex -1.000000 -1.000000 0.000000
    vertex -1.500000 -1.000000 0.000000
    vertex -1.500000 -1.500000 0.000000
  endloop
endfacet
facet normal 0.000000 0.000000 0.250000
  outer loop
    vertex -0.500000 -1.500000 0.000000
    vertex 0.000000 -1.500000 0.000000
    vertex 0.000000 -1.000000 0.000000
  endloop
endfacet
facet normal 0.000000 0.000000 0.250000
  outer loop
    vertex 0.000000 -1.000000 0.000000
    vertex -0.500000 -1.000000 0.000000
    vertex -0.500000 -1.500000 0.000000
  endloop
endfacet
facet normal 0.000000 0.000000 0.250000
  outer loop
    vertex 0.500000 -1.500000 0.000000
    vertex 1.000000 -1.500000 0.000000
    vertex 1.000000 -1.000000 0.000000
  endloop
endfacet
facet normal 0.000000 0.000000 0.250000
  outer loop
    vertex 1.000000 -1.000000 0.000000
    vertex 0.500000 -1.000000 0.000000
    vertex 0.500000 -1.500000 0.000000
  endloop
endfacet
facet normal 0.000000 0.000000 0.250000
  outer loop
    vertex -1.000000 -1.000000 0.000000
    vertex -0.500000 -1.000000 0.000000
    vertex -0.500000 -0.500000 0.000000
  endloop
endfacet
facet normal 0.000000 0.000000 0.250000
  outer loop
    vertex -0.500000 -0.500000 0.000000
    vertex -1.000000 -0.500000 0.000000
    vertex -1.000000 -1.000000 0.000000
  endloop
endfacet
facet normal 0.000000 0.000000 0.250000
  outer loop
    vertex 0.000000 -1.000000 0.000000
    vertex 0.500000 -1.000000 0.000000
    vertex 0.500000 -0.500000 0.000000
  endloop
endfacet
facet normal 0.000000 0.000000 0.250000
  outer loop
    vertex 0.500000 -0.500000 0.000000
    vertex 0.000000 -0.500000 0.000000
    vertex 0.000000 -1.000000 0.000000
  endloop
endfacet
facet normal 0.000000 0.000000 0.250000
  outer loop
    vertex 1.000000 -1.000000 0.000000
    vertex 1.500000 -1.000000 0.000000
    vertex 1.500000 -0.500000 0.000000
  endloop
endfacet
facet normal 0.000000 0.000000 0.250000
  outer loop
    vertex 1.500000 -0.500000 0.000000
    vertex 1.000000 -0.500000 0.000000
    vertex 1.000000 -1.000000 0.000000
  endloop
endfacet
facet normal 0.000000 0.000000 0.250000
  outer loop
    vertex -1.500000 -0.500000 0.000000
    vertex -1.000000 -0.500000 0.000000
    vertex -1.000000 0.000000 0.000000
  endloop
endfacet
facet normal 0.000000 0.000000 0.250000
  outer loop
    vertex -1.000000 0.000000 0.000000
    vertex -1.500000 0.000000 0.000000
    vertex -1.500000 -0.500000 0.000000
  endloop
endfacet
facet normal 0.000000 0.000000 0.250000
  outer loop
    vertex -0.500000 -0.500000 0.000000
    vertex 0.000000 -0.500000 0.000000
    vertex 0.000000 0.000000 0.000000
  endloop
endfacet
facet normal 0.000000 0.000000 0.250000
  outer loop
    vertex 0.000000 0.000000 0.000000
    vertex -0.500000 0.000000 0.000000
    vertex -0.500000 -0.500000 0.000000
  endloop
endfacet
facet normal 0.000000 0.000000 0.250000
  outer loop
    vertex 0.500000 -0.500000 0.000000
    vertex 1.000000 -0.500000 0.000000
    vertex 1.000000 0.000000 0.000000
  endloop
endfacet
facet normal 0.000000 0.000000 0.250000
  outer loop
    vertex 1.000000 0.000000 0.000000
    vertex 0.500000 0.000000 0.000000
    vertex 0.500000 -0.500000 0.000000
  endloop
endfacet
facet normal 0.000000 0.000000 0.250000
  outer loop
    vertex -1.000000 0.000000 0.000000
    vertex -0.500000 0.000000 0.000000
    vertex -0.500000 0.500000 0.000000
  endloop
endfacet
facet normal 0.000000 0.000000 0.250000
  outer loop
    vertex -0.500000 0.500000 0.000000
    vertex -1.000000 0.500000 0.000000
    vertex -1.000000 0.000000 0.000000
  endloop
endfacet
facet normal 0.000000 0.000000 0.250000
  outer loop
    vertex 0.000000 0.000000 0.000000
    vertex 0.500000 0.000000 0.000000
    vertex 0.500000 0.500000 0.000000
  endloop
endfacet
facet normal 0.000000 0.000000 0.250000
  outer loop
    vertex 0.500000 0.500000 0.000000
    vertex 0.000000 0.500000 0.000000
    vertex 0.000000 0.000000 0.000000
  endloop
endfacet
facet normal 0.000000 0.000000 0.250000
  outer loop
    vertex 1.000000 0.000000 0.000000
    vertex 1.500000 0.000000 0.000000
    vertex 1.500000 0.500000 0.000000
  endloop
endfacet
facet normal 0.000000 0.000000 0.250000
  outer loop
    vertex 1.500000 0.500000 0.000000
    vertex 1.000000 0.500000 0.000000
    vertex 1.000000 0.000000 0.000000
  endloop
endfacet
facet normal 0.000000 0.000000 0.250000
  outer loop
    vertex -1.500000 0.500000 0.000000
    vertex -1.000000 0.500000 0.000000
    vertex -1.000000 1.000000 0.000000
  endloop
endfacet
facet normal 0.000000 0.000000 0.250000
  outer loop
    vertex -1.000000 1.000000 0.000000
    vertex -1.500000 1.000000 0.000000
    vertex -1.500000 0.500000 0.000000
  endloop
endfacet
facet normal 0.000000 0.000000 0.250000
  outer loop
    vertex -0.500000 0.500000 0.000000
    vertex 0.000000 0.500000 0.000000
    vertex 0.000000 1.000000 0.000000
  endloop
endfacet
facet normal 0.000000 0.000000 0.250000
  outer loop
    vertex 0.000000 1.000000 0.000000
    vertex -0.500000 1.000000 0.000000
    vertex -0.500000 0.500000 0.000000
  endloop
endfacet
facet normal 0.000000 0.000000 0.250000
  outer loop
    vertex 0.500000 0.500000 0.000000
    vertex 1.000000 0.500000 0.000000
    vertex 1.000000 1.000000 0.000000
  endloop
endfacet
facet normal 0.000000 0.000000 0.250000
  outer loop
    vertex 1.000000 1.000000 0.000000
    vertex 0.500000 1.000000 0.000000
    vertex 0.500000 0.500000 0.000000
  endloop
endfacet
facet normal 0.000000 0.000000 0.250000
  outer loop
    vertex -1.000000 1.000000 0.000000
    vertex -0.500000 1.000000 0.000000
    vertex -0.500000 1.500000 0.000000
  endloop
endfacet
facet normal 0.000000 0.000000 0.250000
  outer loop
    vertex -0.500000 1.500000 0.000000
    vertex -1.000000 1.500000 0.000000
    vertex -1.000000 1.000000 0.000000
  endloop
endfacet
facet normal 0.000000 0.000000 0.250000
  outer loop
    vertex 0.000000 1.000000 0.000000
    vertex 0.500000 1.000000 0.000000
    vertex 0.500000 1.500000 0.000000
  endloop
endfacet
facet normal 0.000000 0.000000 0.250000
  outer loop
    vertex 0.500000 1.500000 0.000000
    vertex 0.000000 1.500000 0.000000
    vertex 0.000000 1.000000 0.000000
  endloop
endfacet
facet normal 0.000000 0.000000 0.250000
  outer loop
    vertex 1.000000 1.000000 0.000000
    vertex 1.500000 1.000000 0.000000
    vertex 1.500000 1.500000 0.000000
  endloop
endfacet
facet normal 0.000000 0.000000 0.250000
  outer loop
    vertex 1.500000 1.500000 0.000000
    vertex 1.000000 1.500000 0.000000
    vertex 1.000000 1.000000 0.000000
  endloop
endfacet
endsolid white_tiles.stl
